<svg id="svg" xmlns="http://www.w3.org/2000/svg" xmlns:xlink="http://www.w3.org/1999/xlink" width="20" height="20" viewBox="0, 0, 400,400"><g id="svgg"><path id="path0" d="M31.495 1.515 C 16.674 6.850,5.031 19.395,1.231 34.125 C 0.107 38.482,0.005 54.973,0.188 202.934 L 0.391 366.915 3.823 373.842 C 9.873 386.051,21.316 395.464,34.125 398.769 C 38.482 399.893,54.968 399.995,202.875 399.812 L 366.797 399.609 373.749 396.210 C 386.476 389.988,396.426 377.417,399.195 364.063 C 399.850 360.903,400.023 316.529,399.848 196.484 L 399.609 33.203 396.210 26.251 C 390.242 14.043,378.739 4.550,365.903 1.238 C 357.847 -0.840,37.300 -0.575,31.495 1.515 M271.094 31.936 C 370.138 32.499,361.691 31.664,366.898 41.406 C 369.718 46.683,368.955 354.017,366.108 359.375 C 364.059 363.232,362.563 364.767,358.984 366.685 L 355.859 368.359 201.563 368.104 C 25.147 367.812,38.408 368.519,33.391 359.134 L 31.641 355.859 31.445 307.422 C 30.971 190.397,32.317 43.587,33.892 40.625 C 36.611 35.508,39.801 33.094,45.313 31.981 C 48.667 31.304,156.228 31.283,271.094 31.936 M206.250 71.500 C 166.340 77.022,151.372 93.809,151.229 133.203 C 151.138 158.206,158.617 175.775,173.438 185.372 C 175.291 186.572,174.848 186.639,164.772 186.678 L 154.153 186.719 153.641 201.367 C 153.360 209.424,153.128 221.495,153.127 228.193 L 153.125 240.370 193.097 240.888 C 215.082 241.173,254.984 241.406,281.769 241.406 L 330.469 241.406 330.469 221.604 C 330.469 210.713,330.695 198.621,330.971 194.732 L 331.473 187.661 281.166 187.271 C 225.975 186.844,224.843 186.754,215.124 182.013 C 194.115 171.766,192.710 137.679,212.948 129.223 C 221.020 125.850,224.678 125.629,279.102 125.229 L 331.250 124.845 331.250 97.579 L 331.250 70.313 272.461 70.393 C 228.561 70.453,211.792 70.734,206.250 71.500 M86.886 270.185 C 59.304 279.998,56.994 318.100,83.203 330.912 C 90.480 334.469,104.334 334.355,111.805 330.677 C 135.961 318.785,135.674 283.153,111.328 271.475 C 105.103 268.489,93.390 267.871,86.886 270.185 M153.125 301.825 L 153.125 329.432 195.441 329.950 C 218.715 330.235,258.617 330.469,284.113 330.469 L 330.469 330.469 330.469 302.344 L 330.469 274.219 241.797 274.219 L 153.125 274.219 153.125 301.825 " stroke="none" fill="#000000" fill-rule="evenodd"></path></g></svg>