<svg id="svg" xmlns="http://www.w3.org/2000/svg" xmlns:xlink="http://www.w3.org/1999/xlink" width="20" height="20" viewBox="0, 0, 400,400"><g id="svgg"><path id="path0" d="M33.984 1.479 C 17.970 6.152,5.292 19.073,1.162 34.930 C -0.649 41.881,-0.587 358.056,1.226 365.054 C 5.404 381.176,18.826 394.620,34.878 398.762 C 42.163 400.641,357.803 400.652,365.054 398.774 C 381.324 394.558,394.558 381.324,398.774 365.054 C 400.642 357.843,400.642 42.157,398.774 34.946 C 394.558 18.676,381.324 5.442,365.054 1.226 C 357.385 -0.761,40.833 -0.519,33.984 1.479 M359.766 33.315 C 363.340 35.231,364.833 36.761,366.898 40.625 C 368.312 43.270,368.359 48.467,368.359 200.000 C 368.359 351.533,368.312 356.730,366.898 359.375 C 364.833 363.239,363.340 364.769,359.766 366.685 L 356.641 368.359 200.000 368.359 C 48.467 368.359,43.270 368.312,40.625 366.898 C 36.761 364.833,35.231 363.340,33.315 359.766 L 31.641 356.641 31.641 200.000 C 31.641 48.467,31.688 43.270,33.102 40.625 C 35.840 35.503,39.014 33.101,44.531 31.976 C 46.035 31.669,116.875 31.468,201.953 31.529 L 356.641 31.641 359.766 33.315 M88.505 66.716 C 65.538 74.189,58.654 104.457,76.157 121.011 C 88.999 133.156,109.752 132.668,121.792 119.937 C 144.385 96.048,119.692 56.568,88.505 66.716 M249.219 151.855 C 234.453 155.280,221.399 163.395,214.919 173.178 L 212.500 176.830 212.500 165.368 L 212.500 153.906 185.938 153.906 L 159.375 153.906 159.375 242.188 L 159.375 330.469 185.857 330.469 L 212.340 330.469 212.729 280.664 C 213.156 226.218,213.241 225.131,217.905 215.138 C 227.756 194.030,260.797 191.673,270.346 211.396 C 274.906 220.817,275.734 232.845,275.762 290.039 L 275.781 330.469 302.770 330.469 L 329.758 330.469 329.498 269.336 C 329.262 213.997,329.102 207.500,327.808 200.781 C 322.625 173.873,310.247 159.080,287.845 153.023 C 280.119 150.934,256.295 150.213,249.219 151.855 M70.313 242.188 L 70.313 330.469 98.047 330.469 L 125.781 330.469 125.781 242.188 L 125.781 153.906 98.047 153.906 L 70.313 153.906 70.313 242.188 " stroke="none" fill="#000000" fill-rule="evenodd"></path></g></svg>