<svg id="svg" xmlns="http://www.w3.org/2000/svg" xmlns:xlink="http://www.w3.org/1999/xlink" width="24" height="30" viewBox="0, 0, 400,544"><g id="svgg"><path id="path0" d="M1.891 2.090 C -1.201 5.507,-1.005 539.308,2.090 542.109 C 5.504 545.198,395.310 545.002,398.109 541.910 C 401.201 538.493,401.005 4.692,397.910 1.891 C 394.496 -1.198,4.690 -1.002,1.891 2.090 M384.000 272.000 L 384.000 526.857 200.000 526.857 L 16.000 526.857 16.000 272.000 L 16.000 17.143 200.000 17.143 L 384.000 17.143 384.000 272.000 M182.171 86.658 C 167.976 96.940,157.714 115.517,157.714 130.930 L 157.714 135.665 151.751 134.118 C 126.336 127.526,91.378 143.251,98.940 157.874 C 100.775 161.422,100.772 161.695,98.889 162.815 C 92.017 166.900,91.156 168.192,91.689 173.612 C 93.204 189.014,109.655 208.803,125.674 214.493 L 131.110 216.423 127.800 221.640 C 114.224 243.035,118.100 279.764,133.818 278.675 L 139.430 278.286 139.429 282.052 C 139.426 298.739,177.986 292.116,195.290 272.457 L 199.720 267.425 207.029 274.570 C 225.872 292.991,260.571 298.062,260.571 282.395 C 260.571 279.029,260.682 278.965,267.143 278.628 L 273.714 278.286 276.555 272.571 C 282.816 259.977,280.681 234.969,272.207 221.640 L 268.890 216.423 274.326 214.493 C 290.345 208.803,306.796 189.014,308.311 173.612 C 308.844 168.192,307.983 166.900,301.111 162.815 C 299.228 161.695,299.225 161.422,301.060 157.874 C 308.622 143.251,273.664 127.526,248.249 134.118 L 242.286 135.665 242.286 130.951 C 242.286 106.070,216.013 75.872,203.516 86.387 L 200.000 89.346 196.484 86.387 C 191.939 82.564,187.713 82.643,182.171 86.658 M190.897 108.833 C 195.399 120.209,204.230 119.815,209.595 108.000 L 211.670 103.429 215.106 107.429 C 227.724 122.117,228.147 146.345,216.091 163.867 C 212.836 168.598,212.255 168.966,209.612 167.961 C 208.015 167.354,204.239 166.857,201.220 166.857 C 196.132 166.857,195.523 166.541,192.858 162.514 C 191.277 160.125,186.709 154.974,182.706 151.068 L 175.429 143.966 175.451 133.983 C 175.476 122.895,177.577 116.681,184.076 108.475 C 188.055 103.452,188.782 103.490,190.897 108.833 M151.199 152.012 C 159.635 154.618,170.266 161.903,175.765 168.846 C 180.094 174.312,180.074 174.169,177.100 178.346 C 175.819 180.144,174.131 183.467,173.347 185.730 C 172.077 189.398,171.120 190.124,164.510 192.434 C 160.433 193.858,154.557 196.513,151.453 198.332 C 140.549 204.722,122.866 197.354,113.499 182.516 C 110.180 177.259,111.021 176.046,118.000 176.018 C 127.659 175.978,130.226 166.244,122.265 159.846 C 117.101 155.696,117.326 155.105,125.238 152.015 C 132.564 149.155,141.944 149.154,151.199 152.012 M277.141 152.971 L 282.854 155.551 277.998 159.585 C 269.826 166.374,272.164 175.977,282.000 176.018 C 288.979 176.046,289.820 177.259,286.501 182.516 C 276.474 198.399,253.196 206.046,232.857 200.137 L 227.429 198.560 227.429 193.069 C 227.429 190.048,226.916 186.228,226.289 184.579 C 225.304 181.989,225.766 180.671,229.679 174.909 C 232.171 171.240,235.443 165.449,236.950 162.040 C 242.017 150.583,261.914 146.093,277.141 152.971 M207.273 187.013 C 213.470 193.210,208.764 204.571,200.000 204.571 C 194.909 204.571,189.714 199.211,189.714 193.958 C 189.714 188.437,194.298 184.000,200.000 184.000 C 203.079 184.000,205.095 184.835,207.273 187.013 M177.729 210.601 C 178.994 212.612,181.674 215.292,183.685 216.557 C 187.171 218.751,187.344 219.201,187.408 226.286 C 187.446 230.371,188.156 236.959,188.987 240.924 C 191.802 254.359,178.434 269.268,159.679 273.611 L 156.502 274.347 157.251 267.031 C 158.456 255.272,152.683 251.682,142.327 257.751 L 137.390 260.644 136.918 255.751 C 135.036 236.238,148.109 217.267,169.143 208.988 C 175.642 206.430,175.033 206.316,177.729 210.601 M240.610 218.987 C 254.742 220.435,263.776 235.517,263.017 256.394 L 262.857 260.789 257.796 257.823 C 247.315 251.680,241.538 255.216,242.749 267.031 L 243.498 274.347 240.321 273.611 C 220.040 268.915,204.716 249.070,204.599 227.353 L 204.571 222.135 210.782 219.561 C 214.198 218.145,217.555 216.309,218.243 215.480 C 219.270 214.243,220.712 214.353,226.317 216.098 C 230.071 217.266,236.503 218.566,240.610 218.987 M85.714 345.143 C 82.572 348.286,82.681 354.643,85.930 357.670 C 89.873 361.344,310.127 361.344,314.070 357.670 C 317.319 354.643,317.428 348.286,314.286 345.143 C 312.031 342.888,310.476 342.857,200.000 342.857 C 89.524 342.857,87.969 342.888,85.714 345.143 M85.714 395.429 C 82.572 398.571,82.681 404.929,85.930 407.955 C 89.873 411.630,310.127 411.630,314.070 407.955 C 317.319 404.929,317.428 398.571,314.286 395.429 C 312.031 393.174,310.476 393.143,200.000 393.143 C 89.524 393.143,87.969 393.174,85.714 395.429 M85.714 445.714 C 82.572 448.857,82.681 455.214,85.930 458.241 C 88.378 460.522,89.645 460.571,145.930 460.571 C 210.712 460.571,208.000 460.946,208.000 452.000 C 208.000 443.052,210.739 443.429,145.714 443.429 C 89.524 443.429,87.940 443.489,85.714 445.714 " stroke="none" fill="#000000" fill-rule="evenodd"></path></g></svg>