<svg id="svg" xmlns="http://www.w3.org/2000/svg" xmlns:xlink="http://www.w3.org/1999/xlink" width="25" height="32" viewBox="0, 0, 400,470.8045977011494"><g id="svgg"><path id="path0" d="M243.580 1.376 C 240.387 3.112,238.857 5.638,236.337 13.333 C 233.895 20.792,232.678 23.361,224.792 37.701 C 215.220 55.106,212.623 70.029,217.252 81.022 L 218.650 84.343 203.375 85.002 C 115.107 88.813,43.129 136.631,13.441 211.185 C -1.650 249.083,-1.974 297.516,12.603 336.552 C 37.395 402.943,101.228 451.869,177.471 462.920 C 194.612 465.405,199.313 465.276,201.918 462.248 C 207.801 455.410,203.502 450.886,189.885 449.586 C 113.218 442.265,47.098 392.608,24.799 325.604 C -12.638 213.118,79.817 100.196,209.655 99.825 L 227.586 99.774 232.644 103.920 C 235.425 106.201,239.667 109.217,242.069 110.624 C 245.539 112.656,246.437 113.682,246.437 115.620 C 246.437 116.962,249.606 129.733,253.479 144.001 C 260.461 169.723,260.508 169.971,258.996 173.157 C 253.408 184.932,263.324 206.882,274.235 206.893 C 277.026 206.896,277.762 207.282,278.181 208.966 C 281.552 222.522,283.862 234.077,283.245 234.300 C 272.911 238.025,255.290 253.132,251.272 261.712 C 241.928 281.660,252.828 299.707,283.904 315.742 C 301.499 324.820,306.147 329.322,308.346 339.417 C 311.538 354.071,317.330 377.196,319.637 384.499 C 324.572 400.122,310.323 423.128,288.736 434.389 C 277.017 440.501,250.217 447.623,232.695 449.280 C 222.176 450.275,217.845 456.833,223.931 462.550 L 226.253 464.731 236.575 463.584 C 282.131 458.518,310.297 444.610,326.321 419.267 C 329.438 414.337,330.128 413.694,330.676 415.210 C 335.309 428.029,354.435 462.924,359.047 466.974 C 367.162 474.099,381.260 471.307,386.215 461.593 C 393.490 447.334,379.600 344.633,369.680 339.324 C 360.556 334.441,356.565 341.347,360.536 355.145 C 366.894 377.233,370.742 398.054,372.418 419.427 C 374.933 451.507,372.575 462.730,365.758 451.128 C 347.216 419.569,337.622 396.110,328.772 360.696 C 324.813 344.854,292.414 205.293,292.414 204.082 C 292.414 203.365,310.807 198.317,311.370 198.880 C 311.584 199.094,320.157 226.037,330.420 258.753 C 340.684 291.469,349.776 319.047,350.624 320.038 C 354.261 324.285,363.218 320.858,363.218 315.219 C 363.218 314.242,357.632 295.689,350.805 273.989 C 336.213 227.613,337.148 233.795,344.149 229.966 C 372.733 214.333,381.870 174.320,362.919 147.763 C 355.333 137.132,338.583 124.006,317.359 112.061 C 309.999 107.918,309.566 107.494,307.483 102.370 L 305.304 97.011 308.425 91.034 C 323.402 62.358,315.104 38.809,283.313 19.770 C 276.557 15.724,268.243 10.080,264.837 7.227 C 255.666 -0.455,249.880 -2.048,243.580 1.376 M277.129 33.575 C 301.287 47.787,306.760 65.116,293.869 86.583 L 290.932 91.474 273.512 96.240 L 256.092 101.006 250.601 98.089 C 237.777 91.278,230.390 80.063,230.362 67.361 L 230.345 59.780 239.191 42.534 C 244.057 33.048,248.739 23.133,249.597 20.500 L 251.156 15.712 258.681 21.431 C 262.820 24.576,271.122 30.041,277.129 33.575 M298.024 122.759 C 300.365 131.356,303.315 142.163,304.578 146.773 L 306.876 155.156 290.820 159.481 C 281.990 161.860,274.608 163.650,274.417 163.459 C 273.165 162.207,261.459 116.176,262.196 115.402 C 263.329 114.212,289.545 106.790,291.941 106.981 C 293.499 107.105,294.391 109.419,298.024 122.759 M186.086 118.107 C 153.451 125.475,147.971 171.157,177.931 186.081 C 198.699 196.427,223.779 185.070,229.506 162.728 C 236.303 136.215,212.812 112.074,186.086 118.107 M330.254 137.925 C 347.824 150.331,355.633 160.558,357.877 174.098 C 360.455 189.662,351.271 209.116,338.028 216.141 C 332.980 218.819,333.778 219.763,329.435 205.977 L 325.814 194.483 328.753 192.470 C 335.021 188.176,336.145 180.924,332.489 168.350 C 330.313 160.864,326.017 154.483,323.153 154.483 C 322.547 154.483,320.779 149.712,319.149 143.678 C 317.543 137.736,315.845 131.699,315.375 130.263 L 314.521 127.652 318.159 129.803 C 320.160 130.986,325.602 134.641,330.254 137.925 M200.063 132.847 C 221.119 139.129,220.949 168.151,199.819 174.335 C 175.722 181.389,162.090 146.228,184.368 134.480 C 190.116 131.449,194.017 131.043,200.063 132.847 M106.827 154.496 C 87.121 157.403,72.601 177.786,76.225 197.452 C 81.826 227.850,119.911 239.321,140.310 216.753 C 164.228 190.295,142.170 149.282,106.827 154.496 M117.609 169.262 C 141.289 174.340,141.077 208.080,117.331 213.394 C 89.739 219.568,79.999 176.932,107.323 169.584 C 112.896 168.085,112.221 168.106,117.609 169.262 M318.659 174.266 C 319.550 177.561,320.114 180.382,319.910 180.535 C 319.289 181.003,277.314 192.197,276.205 192.190 C 275.001 192.183,271.959 180.985,272.919 180.091 C 273.686 179.375,313.354 168.438,315.530 168.342 C 316.624 168.294,317.482 169.918,318.659 174.266 M66.940 241.718 C 36.723 251.711,27.230 290.936,49.856 312.312 C 84.840 345.365,138.585 306.187,117.517 262.989 C 108.803 245.122,85.844 235.466,66.940 241.718 M294.267 278.524 C 297.821 293.896,300.608 306.595,300.459 306.744 C 300.310 306.893,295.505 304.661,289.781 301.783 C 262.037 287.836,255.893 273.765,271.444 259.783 C 276.269 255.445,287.191 248.765,287.580 249.914 C 287.703 250.277,290.712 263.152,294.267 278.524 M91.762 257.357 C 117.918 270.809,108.830 309.505,79.540 309.398 C 54.061 309.306,42.645 278.835,61.678 261.722 C 69.790 254.429,82.487 252.587,91.762 257.357 M116.731 332.327 C 85.001 344.421,82.447 386.004,112.569 400.100 C 148.856 417.081,181.961 370.206,153.823 341.689 C 144.913 332.659,127.434 328.247,116.731 332.327 M135.892 347.173 C 145.869 351.335,151.517 362.687,148.588 372.693 C 142.378 393.909,113.442 393.903,107.015 372.685 C 102.059 356.323,119.944 340.522,135.892 347.173 M203.241 359.175 C 171.634 367.669,166.912 412.053,196.051 426.762 C 214.180 435.914,236.181 428.716,245.073 410.725 C 259.047 382.451,233.549 351.031,203.241 359.175 M222.323 375.067 C 233.441 380.739,237.508 394.487,231.235 405.190 C 220.132 424.136,191.193 416.234,191.285 394.282 C 191.351 378.355,208.254 367.890,222.323 375.067 " stroke="none" fill="#000000" fill-rule="evenodd"></path></g></svg>