<svg id="svg" xmlns="http://www.w3.org/2000/svg" xmlns:xlink="http://www.w3.org/1999/xlink" width="25" height="31" viewBox="0, 0, 400,459.19282511210764"><g id="svgg"><path id="path0" d="M89.292 1.734 C 88.080 3.073,82.664 23.427,82.535 27.130 C 82.522 27.500,74.472 27.803,64.647 27.803 C 40.373 27.803,41.256 27.132,41.256 45.565 L 41.256 57.139 27.578 60.030 C 5.078 64.786,4.484 65.065,4.484 70.861 C 4.484 72.687,11.945 108.977,21.063 151.506 L 37.641 228.832 20.093 307.785 C 2.150 388.513,1.913 389.896,5.620 392.317 C 7.130 393.304,38.267 400.897,40.802 400.897 C 41.052 400.897,41.256 406.365,41.256 413.049 C 41.256 424.061,42.042 428.775,44.193 430.670 C 44.304 430.768,52.643 431.071,62.724 431.343 L 81.054 431.839 83.561 443.410 C 87.542 461.784,81.760 461.445,147.534 447.169 L 198.655 436.074 250.643 447.634 C 305.377 459.803,308.173 460.261,310.708 457.459 C 311.920 456.119,317.336 435.766,317.465 432.063 C 317.478 431.693,325.528 431.390,335.353 431.390 C 359.627 431.390,358.744 432.061,358.744 413.628 L 358.744 402.054 372.422 399.163 C 394.922 394.407,395.516 394.128,395.516 388.331 C 395.516 386.506,388.055 350.216,378.937 307.687 L 362.359 230.361 379.907 151.407 C 397.850 70.680,398.087 69.296,394.380 66.875 C 392.870 65.889,361.733 58.296,359.198 58.296 C 358.948 58.296,358.744 52.827,358.744 46.144 C 358.744 35.132,357.958 30.418,355.807 28.522 C 355.696 28.425,347.357 28.122,337.276 27.850 L 318.946 27.354 316.439 15.783 C 312.459 -2.590,318.288 -2.242,252.128 11.945 L 200.669 22.979 149.016 11.490 C 94.623 -0.610,91.826 -1.067,89.292 1.734 M127.783 21.623 L 153.772 27.354 126.077 27.592 C 110.845 27.722,98.192 27.639,97.961 27.408 C 97.084 26.531,99.787 15.145,100.784 15.516 C 101.339 15.723,113.489 18.471,127.783 21.623 M302.278 18.893 C 302.598 20.094,303.142 22.590,303.488 24.439 L 304.117 27.803 276.498 27.728 L 248.879 27.652 274.439 22.009 C 302.877 15.731,301.477 15.888,302.278 18.893 M344.395 229.596 L 344.395 417.040 200.000 417.040 L 55.605 417.040 55.605 229.596 L 55.605 42.152 200.000 42.152 L 344.395 42.152 344.395 229.596 M150.224 69.360 C 118.778 77.564,99.235 117.371,111.611 148.010 C 119.622 167.842,154.615 201.954,190.602 225.011 C 200.907 231.614,201.919 231.272,226.887 212.769 C 280.362 173.138,298.745 143.662,289.833 111.839 C 278.293 70.636,239.543 56.105,204.771 79.941 C 202.709 81.355,200.562 82.511,200.000 82.511 C 199.438 82.511,197.291 81.355,195.229 79.941 C 181.179 70.310,162.981 66.031,150.224 69.360 M41.183 123.543 L 41.110 175.336 30.476 126.028 C 24.627 98.909,19.918 76.655,20.011 76.576 C 20.103 76.496,24.821 75.413,30.493 74.168 C 36.166 72.924,40.908 71.870,41.031 71.827 C 41.155 71.784,41.223 95.056,41.183 123.543 M380.773 78.232 C 381.151 78.609,360.271 174.495,359.238 177.130 C 359.044 177.623,358.854 154.374,358.815 125.464 L 358.744 72.901 369.535 75.343 C 375.469 76.685,380.527 77.986,380.773 78.232 M170.465 83.930 C 176.704 85.748,185.113 90.328,191.688 95.489 C 198.595 100.912,201.273 100.930,208.060 95.598 C 232.971 76.027,258.365 79.594,271.424 104.498 C 283.728 127.963,278.611 145.692,251.856 172.306 C 236.149 187.930,202.287 214.178,199.311 213.036 C 192.877 210.567,161.497 185.588,148.144 172.306 C 128.348 152.615,120.532 137.866,122.474 123.869 C 126.399 95.589,148.202 77.445,170.465 83.930 M87.560 260.299 C 85.431 262.215,84.857 263.879,85.099 267.441 C 85.155 268.279,89.452 274.654,94.646 281.609 C 100.336 289.227,103.832 294.683,103.440 295.333 C 103.082 295.927,98.753 301.799,93.820 308.383 C 83.990 321.503,82.937 324.592,86.935 328.589 L 88.839 330.493 200.000 330.493 L 311.161 330.493 313.065 328.589 C 317.063 324.592,316.010 321.503,306.180 308.383 C 301.247 301.799,296.915 295.922,296.553 295.321 C 296.152 294.656,299.384 289.583,304.837 282.317 C 321.659 259.906,320.447 258.054,289.241 258.472 C 266.436 258.777,265.471 259.077,265.471 265.862 C 265.471 271.491,267.911 272.556,281.472 272.843 L 293.380 273.094 286.965 281.614 C 277.143 294.660,277.141 294.179,287.074 307.399 L 293.307 315.695 200.000 315.695 L 106.693 315.695 112.926 307.399 C 122.859 294.180,122.857 294.661,113.037 281.614 L 106.623 273.094 175.009 272.864 L 243.394 272.634 245.464 270.690 C 248.034 268.275,248.196 263.798,245.819 260.862 L 244.105 258.744 166.963 258.506 L 89.820 258.267 87.560 260.299 M41.256 333.953 L 41.256 386.292 30.465 383.850 C 24.531 382.507,19.475 381.209,19.231 380.964 C 18.802 380.536,40.475 281.614,40.998 281.614 C 41.140 281.614,41.256 305.167,41.256 333.953 M379.960 382.632 C 379.884 382.698,375.078 383.764,369.283 385.000 L 358.744 387.247 358.816 335.552 L 358.887 283.857 369.494 333.184 C 375.327 360.314,380.037 382.565,379.960 382.632 M108.520 347.085 C 106.041 349.565,106.092 355.202,108.614 357.484 C 110.444 359.140,113.249 359.193,200.000 359.193 C 301.108 359.193,293.274 359.769,293.274 352.327 C 293.274 344.670,301.513 345.291,200.000 345.291 C 111.510 345.291,110.290 345.315,108.520 347.085 M108.689 375.820 C 106.039 378.289,105.999 383.817,108.614 386.184 C 110.444 387.840,113.249 387.892,200.000 387.892 C 286.751 387.892,289.556 387.840,291.386 386.184 C 294.001 383.817,293.961 378.289,291.311 375.820 C 288.216 372.936,111.784 372.936,108.689 375.820 M125.112 437.193 C 96.119 443.498,98.180 443.379,97.350 438.799 C 97.014 436.944,96.521 434.518,96.254 433.408 L 95.770 431.390 123.445 431.463 L 151.121 431.536 125.112 437.193 M301.489 437.679 C 300.423 442.642,299.840 443.878,298.724 443.540 C 297.946 443.304,286.211 440.664,272.646 437.673 C 259.081 434.682,247.578 432.077,247.085 431.883 C 246.592 431.690,258.935 431.500,274.514 431.461 L 302.839 431.390 301.489 437.679 " stroke="none" fill="#000000" fill-rule="evenodd"></path></g></svg>