<svg id="svg" xmlns="http://www.w3.org/2000/svg" xmlns:xlink="http://www.w3.org/1999/xlink" width="25" height="25" viewBox="0, 0, 400,400"><g id="svgg"><path id="path0" d="M259.766 13.761 C 227.062 20.969,206.275 48.247,206.253 83.984 L 206.246 96.484 203.831 98.047 C 185.146 110.140,194.348 143.750,216.343 143.750 L 219.347 143.750 221.384 150.195 C 225.413 162.947,235.207 176.202,245.788 183.225 L 250.000 186.021 250.000 199.261 L 250.000 212.500 243.750 212.500 L 237.500 212.500 237.500 203.545 C 237.500 188.960,232.739 180.548,222.267 176.630 C 215.409 174.064,34.591 174.064,27.733 176.630 C 21.920 178.805,16.305 184.420,14.130 190.233 C 11.577 197.056,11.577 315.444,14.130 322.267 C 19.012 335.316,24.943 337.500,55.498 337.500 C 68.373 337.500,78.896 337.764,78.884 338.086 C 78.872 338.408,76.829 346.758,74.343 356.641 L 69.825 374.609 41.162 374.814 L 12.500 375.019 12.500 381.260 L 12.500 387.500 200.000 387.500 L 387.500 387.500 387.500 381.250 L 387.500 375.000 381.697 375.000 L 375.894 375.000 378.377 370.187 L 380.859 365.375 381.073 304.436 C 381.326 232.556,381.643 235.160,371.267 224.067 C 361.962 214.119,356.405 212.500,331.571 212.500 L 312.500 212.500 312.500 199.248 L 312.500 185.996 316.992 182.911 C 321.388 179.893,329.883 171.650,332.184 168.169 C 333.310 166.466,333.439 166.609,336.706 173.202 C 344.610 189.153,361.865 200.000,379.335 200.000 C 388.295 200.000,387.500 205.710,387.500 141.324 C 387.500 79.040,387.682 81.314,381.787 69.922 C 375.654 58.070,360.910 46.576,349.679 44.892 C 346.487 44.413,345.847 43.910,342.224 39.038 C 333.991 27.967,322.553 20.037,307.813 15.183 C 299.428 12.421,269.818 11.545,259.766 13.761 M301.018 27.304 C 327.927 34.187,343.648 56.842,343.736 88.867 C 343.757 96.393,342.529 95.266,332.545 78.606 C 327.554 70.276,322.907 63.245,322.218 62.981 C 319.484 61.931,315.997 62.640,308.774 65.714 C 275.236 79.989,233.095 92.943,220.117 92.966 C 218.512 92.969,218.339 88.664,219.475 76.929 C 223.116 39.330,260.080 16.834,301.018 27.304 M363.146 67.501 C 374.536 78.404,374.507 78.232,374.827 137.277 L 375.095 186.663 370.946 185.452 C 355.597 180.974,345.701 167.952,344.150 150.195 L 343.587 143.750 346.374 143.750 C 368.109 143.750,377.234 110.082,358.748 98.095 L 356.413 96.581 356.054 82.080 C 355.803 71.932,355.331 66.458,354.481 63.847 L 353.266 60.116 356.125 61.817 C 357.698 62.753,360.857 65.311,363.146 67.501 M323.758 90.254 L 331.473 103.165 331.031 120.918 C 330.452 144.180,328.523 151.220,319.747 162.109 C 295.625 192.039,248.372 184.299,234.791 148.194 C 232.333 141.659,231.281 132.280,231.264 116.735 L 231.250 104.954 237.695 103.603 C 241.240 102.860,244.815 102.055,245.639 101.813 C 247.036 101.404,247.022 101.519,245.443 103.527 C 242.630 107.104,243.062 112.750,246.406 116.094 C 252.574 122.261,262.500 118.117,262.500 109.375 C 262.500 104.759,258.907 100.030,255.352 99.968 C 254.342 99.950,258.613 98.343,264.844 96.396 C 277.315 92.499,299.240 84.447,308.984 80.186 C 312.422 78.682,315.416 77.428,315.639 77.398 C 315.861 77.368,319.514 83.153,323.758 90.254 M302.656 102.656 C 300.317 104.996,300.000 105.797,300.000 109.375 C 300.000 112.953,300.317 113.754,302.656 116.094 C 304.996 118.433,305.797 118.750,309.375 118.750 C 312.953 118.750,313.754 118.433,316.094 116.094 C 318.433 113.754,318.750 112.953,318.750 109.375 C 318.750 105.797,318.433 104.996,316.094 102.656 C 313.754 100.317,312.953 100.000,309.375 100.000 C 305.797 100.000,304.996 100.317,302.656 102.656 M218.750 118.750 C 218.750 131.951,218.463 132.432,212.688 128.910 C 205.142 124.310,205.142 113.190,212.688 108.590 C 218.463 105.068,218.750 105.549,218.750 118.750 M349.812 108.590 C 357.358 113.190,357.358 124.310,349.812 128.910 C 344.037 132.432,343.750 131.951,343.750 118.750 C 343.750 105.549,344.037 105.068,349.812 108.590 M262.500 139.869 C 262.500 143.211,264.497 147.598,267.422 150.681 C 278.174 162.014,300.000 154.770,300.000 139.869 L 300.000 137.500 293.531 137.500 C 287.082 137.500,287.059 137.507,286.190 139.808 C 285.224 142.367,282.525 143.458,279.216 142.628 C 277.930 142.305,276.861 141.267,276.310 139.808 C 275.441 137.507,275.418 137.500,268.969 137.500 L 262.500 137.500 262.500 139.869 M214.393 188.248 C 224.993 190.707,224.570 188.094,224.850 252.734 C 225.143 320.405,225.312 318.690,217.966 323.005 C 213.947 325.366,151.559 325.994,151.567 323.673 C 151.570 322.899,152.622 314.004,153.906 303.906 C 156.720 281.773,156.809 278.684,154.687 276.563 C 152.662 274.537,98.420 274.089,95.703 276.075 C 94.609 276.875,92.704 283.230,88.268 300.880 L 82.303 324.609 58.535 324.609 C 21.449 324.609,24.807 331.840,25.150 252.734 C 25.429 188.410,25.072 190.686,35.252 188.283 C 38.968 187.406,210.616 187.372,214.393 188.248 M268.750 192.921 C 275.674 194.479,291.636 193.835,298.633 191.715 C 299.896 191.333,300.000 192.272,300.003 204.049 C 300.007 219.859,302.539 224.986,310.352 224.997 C 317.049 225.006,302.343 238.306,292.116 241.489 C 278.527 245.718,263.838 241.578,253.916 230.721 C 249.420 225.802,249.173 225.001,252.148 224.997 C 259.961 224.986,262.493 219.859,262.497 204.049 C 262.500 192.272,262.604 191.333,263.867 191.715 C 264.619 191.943,266.816 192.485,268.750 192.921 M37.500 206.250 L 37.500 212.500 50.000 212.500 L 62.500 212.500 62.500 206.250 L 62.500 200.000 50.000 200.000 L 37.500 200.000 37.500 206.250 M75.000 206.250 L 75.000 212.500 87.500 212.500 L 100.000 212.500 100.000 206.250 L 100.000 200.000 87.500 200.000 L 75.000 200.000 75.000 206.250 M112.500 206.250 L 112.500 212.500 125.000 212.500 L 137.500 212.500 137.500 206.250 L 137.500 200.000 125.000 200.000 L 112.500 200.000 112.500 206.250 M150.000 206.250 L 150.000 212.500 162.500 212.500 L 175.000 212.500 175.000 206.250 L 175.000 200.000 162.500 200.000 L 150.000 200.000 150.000 206.250 M187.500 206.250 L 187.500 212.500 200.000 212.500 L 212.500 212.500 212.500 206.250 L 212.500 200.000 200.000 200.000 L 187.500 200.000 187.500 206.250 M350.923 226.538 C 357.657 228.528,365.060 235.897,367.287 242.827 C 367.880 244.675,368.331 254.290,368.548 269.727 L 368.886 293.750 361.947 293.750 L 355.009 293.750 353.630 289.258 C 351.503 282.330,347.230 275.378,341.194 269.024 C 334.818 262.312,335.525 262.362,330.927 268.301 C 326.555 273.948,326.493 273.029,331.600 278.301 C 344.668 291.793,346.594 312.905,336.134 327.995 C 334.522 330.320,332.693 333.024,332.071 334.003 C 329.616 337.861,321.096 337.486,312.334 333.133 L 304.893 329.437 310.770 320.385 C 318.024 309.213,318.750 307.500,318.750 301.563 C 318.750 287.291,304.209 278.437,291.016 284.674 C 285.420 287.320,285.289 287.496,260.187 326.172 L 237.369 361.328 237.836 366.016 C 238.093 368.594,238.515 371.670,238.774 372.852 C 239.240 374.977,239.201 375.000,235.247 375.000 L 231.250 375.000 231.250 355.027 C 231.250 342.951,230.935 334.465,230.454 333.565 C 229.814 332.370,230.198 331.324,232.404 328.254 C 237.627 320.983,237.500 322.318,237.500 274.816 L 237.500 231.859 240.933 236.522 C 262.134 265.323,308.759 262.015,325.300 230.538 L 328.324 224.784 338.185 225.236 C 343.609 225.484,349.341 226.070,350.923 226.538 M142.151 289.258 C 142.131 290.225,139.749 309.824,136.858 332.813 L 131.600 374.609 107.597 374.816 C 94.395 374.930,83.594 374.837,83.594 374.610 C 83.594 374.078,104.620 289.773,105.076 288.477 C 105.338 287.733,109.801 287.500,123.804 287.500 L 142.188 287.500 142.151 289.258 M303.661 297.792 C 306.652 300.603,305.966 302.849,298.636 314.242 L 291.803 324.863 285.159 326.160 C 281.505 326.873,277.716 327.648,276.739 327.880 C 274.905 328.317,292.923 299.335,295.893 297.070 C 297.882 295.553,301.650 295.904,303.661 297.792 M368.750 318.735 C 368.750 333.209,370.127 331.485,357.503 332.813 C 348.476 333.762,348.663 333.840,350.646 329.953 C 353.209 324.929,355.459 317.170,355.981 311.562 L 356.474 306.250 362.612 306.250 L 368.750 306.250 368.750 318.735 M153.125 338.707 C 153.125 341.998,150.510 350.000,149.435 350.000 C 148.342 350.000,148.601 340.010,149.744 338.086 C 150.396 336.989,153.125 337.490,153.125 338.707 M199.222 338.086 C 199.224 338.408,196.851 346.843,193.949 356.829 L 188.672 374.987 184.961 374.993 L 181.250 375.000 181.250 364.063 C 181.250 350.145,181.149 350.000,171.484 350.000 C 163.881 350.000,164.145 350.367,166.111 342.543 L 167.377 337.500 183.298 337.500 C 192.054 337.500,199.220 337.764,199.222 338.086 M217.321 338.793 C 218.624 339.972,218.750 341.623,218.750 357.543 L 218.750 375.000 210.669 375.000 L 202.588 375.000 208.101 356.250 C 213.819 336.806,214.241 336.006,217.321 338.793 M304.688 344.141 C 318.546 351.082,315.843 350.841,344.141 347.656 C 355.596 346.367,365.870 345.313,366.974 345.313 L 368.980 345.313 368.545 352.589 C 367.884 363.671,364.678 369.341,357.031 372.950 C 353.603 374.568,352.466 374.615,311.133 374.842 L 268.750 375.075 268.750 359.077 L 268.750 343.080 272.852 342.241 C 275.107 341.780,280.117 340.735,283.984 339.920 C 287.852 339.105,291.459 338.402,292.002 338.359 C 292.544 338.316,298.253 340.918,304.688 344.141 M256.085 372.291 C 252.152 376.064,249.845 367.024,253.377 361.678 L 255.859 357.921 256.085 364.998 C 256.210 368.890,256.210 372.172,256.085 372.291 M168.750 368.750 L 168.750 375.000 156.952 375.000 L 145.154 375.000 145.712 369.336 C 146.020 366.221,146.428 363.408,146.619 363.086 C 146.811 362.764,151.868 362.500,157.859 362.500 L 168.750 362.500 168.750 368.750 " stroke="none" fill="#000000" fill-rule="evenodd"></path></g></svg>