<svg id="svg" xmlns="http://www.w3.org/2000/svg" xmlns:xlink="http://www.w3.org/1999/xlink" width="25" height="25" viewBox="0, 0, 400,400"><g id="svgg"><path id="path0" d="M257.634 32.634 C 237.658 52.610,237.500 52.794,237.500 56.071 C 237.500 61.557,239.105 62.500,248.438 62.500 L 256.250 62.500 256.250 68.739 L 256.250 74.979 145.508 75.185 L 34.766 75.391 30.078 77.686 C 24.100 80.614,18.124 86.592,15.189 92.578 L 12.891 97.266 12.641 114.258 L 12.391 131.250 18.610 131.250 L 24.829 131.250 25.143 116.992 C 25.496 101.023,26.283 98.002,31.347 93.204 C 37.404 87.463,27.851 87.915,148.242 87.679 L 256.250 87.468 256.250 146.859 L 256.250 206.250 262.500 206.250 L 268.750 206.250 268.750 129.837 C 268.750 45.066,269.142 50.879,263.376 50.067 L 260.121 49.609 270.686 39.073 L 281.250 28.537 291.814 39.073 L 302.379 49.609 299.124 50.067 C 293.366 50.878,293.750 45.395,293.750 126.712 L 293.750 200.000 300.000 200.000 L 306.250 200.000 306.250 143.664 L 306.250 87.329 320.508 87.643 C 336.477 87.996,339.498 88.783,344.296 93.847 C 349.904 99.764,349.585 95.541,349.831 166.992 L 350.052 231.250 356.293 231.250 L 362.534 231.250 362.322 164.258 L 362.109 97.266 359.811 92.578 C 356.878 86.596,350.904 80.622,344.922 77.689 L 340.234 75.391 323.242 75.141 L 306.250 74.891 306.250 68.695 L 306.250 62.500 314.063 62.500 C 323.395 62.500,325.000 61.557,325.000 56.071 C 325.000 52.794,324.842 52.610,304.866 32.634 L 284.732 12.500 281.250 12.500 L 277.768 12.500 257.634 32.634 M318.750 19.032 L 318.750 25.564 322.603 26.020 C 332.566 27.200,341.550 36.184,342.730 46.147 L 343.186 50.000 349.718 50.000 L 356.250 50.000 356.250 46.626 C 356.250 30.056,338.731 12.500,322.196 12.500 L 318.750 12.500 318.750 19.032 M43.750 106.250 L 43.750 112.500 50.000 112.500 L 56.250 112.500 56.250 106.250 L 56.250 100.000 50.000 100.000 L 43.750 100.000 43.750 106.250 M68.750 106.250 L 68.750 112.500 75.000 112.500 L 81.250 112.500 81.250 106.250 L 81.250 100.000 75.000 100.000 L 68.750 100.000 68.750 106.250 M93.750 106.250 L 93.750 112.500 100.000 112.500 L 106.250 112.500 106.250 106.250 L 106.250 100.000 100.000 100.000 L 93.750 100.000 93.750 106.250 M195.313 107.813 C 193.773 109.352,193.750 110.417,193.750 179.688 L 193.750 250.000 187.500 250.000 L 181.250 250.000 181.250 201.563 C 181.250 154.167,181.216 153.091,179.688 151.563 C 177.265 149.140,135.235 149.140,132.813 151.563 C 131.284 153.091,131.250 154.167,131.250 201.563 L 131.250 250.000 125.000 250.000 L 118.750 250.000 118.750 223.438 C 118.750 189.832,122.049 193.750,93.750 193.750 C 65.451 193.750,68.750 189.832,68.750 223.438 L 68.750 250.000 56.250 250.000 L 43.750 250.000 43.750 256.250 L 43.750 262.500 125.000 262.500 L 206.250 262.500 206.250 190.625 L 206.250 118.750 218.750 118.750 L 231.250 118.750 231.250 168.750 L 231.250 218.750 237.500 218.750 L 243.750 218.750 243.750 164.063 C 243.750 110.417,243.720 109.345,242.188 107.813 C 240.699 106.324,239.583 106.250,218.750 106.250 C 197.917 106.250,196.801 106.324,195.313 107.813 M12.681 223.242 L 12.891 302.734 15.189 307.422 C 18.122 313.404,24.096 319.378,30.078 322.311 L 34.766 324.609 90.820 324.825 C 121.650 324.943,146.887 325.295,146.902 325.606 C 146.916 325.917,143.664 337.155,139.675 350.578 L 132.422 374.985 125.586 374.992 L 118.750 375.000 118.750 381.250 L 118.750 387.500 187.500 387.500 L 256.250 387.500 256.250 381.250 L 256.250 375.000 249.414 374.994 L 242.578 374.989 238.744 361.909 C 234.123 346.145,235.128 347.378,228.510 349.355 C 221.144 351.556,221.334 350.845,224.930 362.752 C 226.687 368.571,228.125 373.707,228.125 374.166 C 228.125 375.136,146.893 375.384,146.848 374.414 C 146.834 374.092,150.086 362.845,154.075 349.422 L 161.328 325.015 183.789 325.008 L 206.250 325.000 206.250 318.770 L 206.250 312.541 123.242 312.325 C 40.465 312.110,40.225 312.105,36.719 310.450 C 29.737 307.155,26.240 301.705,25.315 292.680 L 24.784 287.500 112.392 287.500 L 200.000 287.500 200.000 281.250 L 200.000 275.000 112.500 275.000 L 25.000 275.000 25.000 209.375 L 25.000 143.750 18.736 143.750 L 12.471 143.750 12.681 223.242 M168.750 206.250 L 168.750 250.000 156.250 250.000 L 143.750 250.000 143.750 206.250 L 143.750 162.500 156.250 162.500 L 168.750 162.500 168.750 206.250 M106.250 228.125 L 106.250 250.000 93.750 250.000 L 81.250 250.000 81.250 228.125 L 81.250 206.250 93.750 206.250 L 106.250 206.250 106.250 228.125 M278.125 212.543 C 237.662 217.422,208.047 254.841,212.514 295.441 C 218.180 346.929,272.280 377.364,319.649 355.711 L 325.891 352.858 342.047 368.978 C 359.567 386.460,361.067 387.500,368.750 387.500 C 379.909 387.500,387.444 380.027,387.483 368.920 C 387.510 361.060,386.534 359.642,368.978 342.047 L 352.858 325.891 355.711 319.649 C 364.800 299.765,364.873 275.208,355.902 255.791 C 342.207 226.148,310.679 208.618,278.125 212.543 M302.734 227.380 C 339.856 236.377,359.839 279.081,343.298 314.063 C 320.995 361.230,253.418 360.758,231.373 313.280 C 209.650 266.496,252.300 215.157,302.734 227.380 M274.835 238.712 C 237.712 247.712,224.660 295.791,251.934 323.066 C 275.605 346.737,316.583 340.672,331.839 311.239 C 351.987 272.370,317.418 228.388,274.835 238.712 M297.633 252.092 C 313.334 256.415,324.219 270.881,324.219 287.428 C 324.219 320.817,283.868 336.883,260.786 312.684 C 235.030 285.682,261.505 242.146,297.633 252.092 M277.511 264.168 C 269.542 267.230,262.500 276.907,262.500 284.795 L 262.500 287.500 269.141 287.500 C 275.506 287.500,275.781 287.427,275.784 285.742 C 275.786 284.775,276.486 282.839,277.340 281.438 C 279.122 278.515,283.174 275.788,285.742 275.784 C 287.427 275.781,287.500 275.506,287.500 269.141 L 287.500 262.500 284.570 262.541 C 282.959 262.563,279.782 263.295,277.511 264.168 M373.913 366.624 C 376.130 370.806,371.134 376.266,367.007 374.171 C 366.032 373.676,358.822 366.900,350.985 359.113 L 336.735 344.954 340.811 340.827 L 344.887 336.700 358.824 350.577 C 366.490 358.209,373.280 365.430,373.913 366.624 " stroke="none" fill="#000000" fill-rule="evenodd"></path></g></svg>