<svg id="svg" xmlns="http://www.w3.org/2000/svg" xmlns:xlink="http://www.w3.org/1999/xlink" width="25" height="25" viewBox="0, 0, 400,400"><g id="svgg"><path id="path0" d="M187.109 1.461 C 154.485 10.852,141.884 53.135,164.503 77.316 L 167.953 81.005 163.815 81.931 C 144.995 86.143,127.408 103.874,121.457 124.638 C 120.068 129.481,118.794 164.145,119.850 168.351 C 121.226 173.833,114.987 173.437,200.000 173.437 C 285.013 173.437,278.774 173.833,280.150 168.351 C 281.206 164.145,279.932 129.481,278.543 124.638 C 272.592 103.874,255.005 86.143,236.185 81.931 L 232.047 81.005 235.497 77.316 C 266.452 44.223,231.097 -11.201,187.109 1.461 M213.281 16.924 C 242.962 31.029,237.191 73.303,204.806 79.008 C 189.108 81.773,172.462 70.704,168.303 54.734 C 161.505 28.636,189.104 5.435,213.281 16.924 M268.750 47.949 C 268.750 48.111,267.528 50.923,266.035 54.199 L 263.321 60.156 268.750 62.891 C 271.736 64.395,274.628 65.621,275.176 65.617 C 276.160 65.608,282.618 54.208,281.974 53.615 C 280.173 51.958,268.750 47.063,268.750 47.949 M112.290 56.758 C 105.175 60.951,105.337 60.279,109.769 67.193 L 113.289 72.684 117.386 70.279 C 119.640 68.956,122.275 67.488,123.242 67.015 C 125.480 65.921,125.554 66.283,121.652 59.216 L 118.330 53.198 112.290 56.758 M290.754 64.677 C 285.329 72.705,285.280 71.931,291.484 76.170 C 294.662 78.341,297.246 79.620,297.639 79.214 C 299.110 77.695,305.468 69.231,305.455 68.809 C 305.447 68.562,302.815 66.526,299.605 64.286 L 293.770 60.213 290.754 64.677 M88.807 73.157 L 83.473 77.523 85.671 79.973 C 86.879 81.320,89.071 83.724,90.542 85.316 L 93.216 88.210 97.975 84.249 C 104.011 79.225,103.935 79.753,99.486 73.844 C 94.903 67.758,95.366 67.788,88.807 73.157 M310.691 82.540 L 306.147 87.719 309.128 90.800 C 310.768 92.494,313.107 94.601,314.327 95.480 L 316.545 97.080 321.163 92.510 C 323.703 89.996,325.781 87.690,325.781 87.384 C 325.781 86.810,316.676 77.879,315.754 77.548 C 315.468 77.446,313.190 79.692,310.691 82.540 M69.531 91.891 C 67.168 94.686,65.140 97.234,65.025 97.553 C 64.742 98.336,74.892 106.421,75.764 106.107 C 76.143 105.971,78.262 103.787,80.474 101.253 L 84.495 96.647 79.575 91.683 C 73.682 85.738,74.752 85.716,69.531 91.891 M234.564 96.211 C 256.553 104.676,266.361 120.588,266.393 147.852 L 266.406 159.375 200.000 159.375 L 133.594 159.375 133.607 147.852 C 133.639 121.327,143.678 104.445,163.949 96.832 C 171.394 94.036,173.735 93.863,201.953 94.026 L 229.297 94.184 234.564 96.211 M329.297 101.616 C 326.719 103.772,324.650 106.001,324.700 106.570 C 324.820 107.923,331.231 116.406,332.134 116.406 C 333.860 116.406,343.679 109.114,343.146 108.228 C 341.135 104.889,335.414 97.701,334.766 97.699 C 334.336 97.697,331.875 99.460,329.297 101.616 M52.842 114.322 C 48.400 121.448,48.189 120.365,54.756 124.151 C 61.680 128.143,60.993 128.272,64.774 122.285 C 68.769 115.959,68.843 116.465,63.361 112.619 C 56.548 107.840,56.919 107.780,52.842 114.322 M344.141 123.586 C 341.133 125.352,338.594 126.851,338.499 126.918 C 338.228 127.108,344.584 139.063,344.956 139.063 C 346.149 139.063,357.029 133.096,357.021 132.446 C 357.005 131.240,350.816 120.308,350.169 120.344 C 349.861 120.361,347.148 121.820,344.141 123.586 M39.934 139.124 C 38.455 142.645,37.595 145.685,37.981 146.027 C 38.855 146.801,50.128 150.913,50.462 150.580 C 50.826 150.216,55.469 139.222,55.469 138.725 C 55.469 138.119,44.769 132.810,43.574 132.823 C 43.026 132.828,41.388 135.664,39.934 139.124 M355.317 147.757 C 351.813 149.122,349.425 150.486,349.592 151.026 C 352.469 160.355,353.382 162.500,354.472 162.500 C 355.555 162.500,366.512 159.470,366.985 159.040 C 367.430 158.635,362.711 145.778,362.054 145.606 C 361.655 145.501,358.623 146.469,355.317 147.757 M31.346 165.206 C 30.434 168.843,29.688 171.979,29.688 172.175 C 29.688 172.631,40.055 175.000,42.050 175.000 C 43.873 175.000,47.474 162.660,45.822 162.071 C 42.719 160.965,34.620 158.612,33.885 158.604 C 33.401 158.598,32.258 161.569,31.346 165.206 M362.500 173.244 C 359.277 173.901,356.558 174.501,356.457 174.577 C 356.356 174.654,356.795 177.681,357.432 181.304 C 358.070 184.926,358.592 187.905,358.593 187.921 C 358.596 188.031,372.304 186.489,372.459 186.362 C 372.565 186.274,372.296 184.121,371.860 181.578 C 371.425 179.034,370.882 175.811,370.655 174.414 C 370.192 171.569,370.501 171.613,362.500 173.244 M26.978 192.541 C 26.301 200.675,25.604 199.857,33.747 200.483 L 40.443 200.998 41.012 194.571 C 41.697 186.835,41.817 186.974,33.889 186.296 L 27.544 185.753 26.978 192.541 M363.867 199.796 L 359.375 200.078 359.375 206.577 L 359.375 213.077 362.305 213.561 C 363.916 213.827,367.080 214.049,369.336 214.054 L 373.438 214.063 373.438 206.641 L 373.438 199.219 370.898 199.366 C 369.502 199.448,366.338 199.641,363.867 199.796 M31.365 213.081 L 26.403 213.360 26.961 220.547 C 27.624 229.091,26.390 228.040,34.673 227.120 L 41.612 226.350 41.124 221.183 C 40.856 218.341,40.634 215.225,40.631 214.258 C 40.626 212.826,40.227 212.528,38.477 212.651 C 37.295 212.733,34.095 212.927,31.365 213.081 M67.969 227.799 C 34.694 236.578,21.792 278.312,44.415 303.984 L 47.582 307.577 42.873 308.886 C 23.032 314.403,6.827 331.273,1.575 351.883 C -0.973 361.882,-0.803 395.849,1.808 398.301 L 3.616 400.000 79.969 400.000 L 156.321 400.000 158.239 398.082 L 160.156 396.165 160.156 378.229 C 160.156 366.002,159.804 358.453,159.050 354.511 C 154.999 333.337,137.866 314.609,117.323 308.897 L 112.655 307.600 116.104 303.366 C 144.718 268.235,111.624 216.282,67.969 227.799 M308.428 227.729 C 275.289 236.103,262.137 276.652,283.896 303.366 L 287.345 307.600 282.677 308.897 C 262.134 314.609,245.001 333.337,240.950 354.511 C 240.196 358.453,239.844 366.002,239.844 378.229 L 239.844 396.165 241.761 398.082 L 243.679 400.000 320.141 400.000 L 396.603 400.000 398.301 398.192 C 400.803 395.528,400.894 361.571,398.425 351.883 C 393.173 331.273,376.968 314.403,357.127 308.886 L 352.418 307.577 355.585 303.984 C 385.466 270.076,352.406 216.616,308.428 227.729 M93.123 243.525 C 122.891 257.455,117.163 300.271,84.814 305.631 C 67.478 308.504,50.471 295.891,47.696 278.103 C 43.785 253.035,70.306 232.847,93.123 243.525 M328.709 241.811 C 352.596 248.904,360.455 277.277,343.631 295.684 C 323.994 317.170,287.441 302.750,287.429 273.511 C 287.420 251.847,308.359 235.767,328.709 241.811 M108.984 321.484 C 132.834 326.474,145.253 343.356,145.911 371.680 L 146.243 385.938 80.153 385.938 L 14.063 385.938 14.072 372.852 C 14.092 344.448,26.664 326.660,50.391 321.463 C 57.388 319.931,101.635 319.946,108.984 321.484 M354.670 322.841 C 376.076 330.631,385.909 346.363,385.928 372.852 L 385.938 385.938 319.847 385.938 L 253.757 385.938 254.089 371.680 C 254.555 351.591,257.348 344.124,268.451 333.280 C 279.874 322.123,287.450 320.330,322.266 320.549 L 348.828 320.716 354.670 322.841 M167.283 367.083 C 166.814 369.269,166.214 372.410,165.950 374.063 L 165.469 377.069 172.279 378.082 C 179.749 379.193,180.426 378.939,180.464 375.000 C 180.474 373.926,180.698 371.255,180.961 369.064 L 181.439 365.082 178.024 364.613 C 176.146 364.356,173.153 363.911,171.372 363.626 L 168.135 363.108 167.283 367.083 M223.577 364.288 C 219.128 364.999,218.677 365.240,219.026 366.718 C 219.239 367.621,219.656 370.732,219.954 373.633 C 220.573 379.667,220.104 379.455,229.297 377.864 C 232.305 377.343,234.763 376.574,234.760 376.154 C 234.757 375.734,234.268 372.666,233.673 369.336 C 232.444 362.455,233.075 362.770,223.577 364.288 M193.443 367.642 C 193.182 368.322,192.969 371.486,192.969 374.673 L 192.969 380.469 200.493 380.469 L 208.017 380.469 207.533 377.539 C 207.266 375.928,207.045 372.764,207.040 370.508 L 207.031 366.406 200.474 366.406 C 195.216 366.406,193.823 366.651,193.443 367.642 " stroke="none" fill="#000000" fill-rule="evenodd"></path></g></svg>