<svg id="svg" xmlns="http://www.w3.org/2000/svg" xmlns:xlink="http://www.w3.org/1999/xlink" width="25" height="25" viewBox="0, 0, 400,400"><g id="svgg"><path id="path0" d="M87.109 1.136 C 20.372 13.953,-17.149 80.734,7.139 143.466 C 34.047 212.963,125.802 231.957,178.764 178.994 C 233.701 124.058,211.829 30.177,138.281 5.231 C 124.362 0.510,100.367 -1.410,87.109 1.136 M126.723 18.985 C 185.406 34.476,211.972 104.064,178.193 153.807 C 174.290 159.553,174.873 159.488,172.051 154.492 C 165.632 143.128,156.750 137.716,138.964 134.330 C 126.027 131.867,124.968 130.938,130.495 126.908 C 136.868 122.260,142.527 113.367,144.894 104.279 C 146.570 97.843,146.596 68.661,144.930 62.268 C 136.775 30.957,98.393 20.225,75.688 42.906 C 65.451 53.132,63.281 60.180,63.281 83.203 C 63.281 107.653,66.851 117.822,78.495 126.547 C 84.431 130.994,83.558 131.827,70.318 134.348 C 51.998 137.836,42.547 143.912,36.324 156.201 L 34.965 158.887 32.761 156.201 C 14.969 134.516,11.356 95.346,24.575 67.441 C 42.849 28.865,86.218 8.292,126.723 18.985 M236.328 29.253 C 230.982 31.600,217.969 46.317,217.969 50.016 C 217.969 55.127,233.893 71.307,238.923 71.307 C 244.888 71.307,248.833 66.220,246.984 60.914 L 246.175 58.594 293.791 58.594 L 341.406 58.594 341.406 101.855 C 341.406 125.649,341.625 146.211,341.892 147.547 C 343.150 153.835,351.322 156.299,355.713 151.715 L 357.813 149.524 357.813 97.955 L 357.813 46.386 355.621 44.287 L 353.430 42.187 299.431 42.188 L 245.432 42.188 246.643 39.761 C 249.795 33.443,242.865 26.383,236.328 29.253 M113.367 48.876 C 117.761 50.312,122.925 54.606,125.903 59.303 C 129.240 64.563,128.732 65.151,123.501 62.085 C 116.955 58.248,113.869 58.374,108.561 62.695 C 99.595 69.994,94.850 71.875,85.405 71.875 C 78.686 71.875,78.439 71.365,81.364 63.545 C 86.180 50.676,99.783 44.440,113.367 48.876 M314.784 78.065 C 309.765 83.083,313.194 91.406,320.280 91.406 C 324.330 91.406,327.023 89.667,328.120 86.343 C 330.827 78.141,320.881 71.968,314.784 78.065 M127.214 83.415 L 129.820 84.727 129.556 92.559 C 128.397 127.001,81.520 128.782,79.826 94.448 L 79.532 88.506 88.399 88.053 C 99.949 87.462,107.891 84.825,114.453 79.401 L 116.797 77.463 120.703 79.783 C 122.852 81.059,125.782 82.693,127.214 83.415 M314.784 109.315 C 309.765 114.333,313.194 122.656,320.280 122.656 C 324.330 122.656,327.023 120.917,328.120 117.593 C 330.827 109.391,320.881 103.218,314.784 109.315 M112.587 137.710 C 113.532 139.992,106.832 152.734,104.688 152.734 C 104.203 152.734,102.025 149.841,99.849 146.304 C 94.136 137.021,94.799 135.547,104.688 135.547 C 111.603 135.547,111.702 135.574,112.587 137.710 M314.784 140.565 C 312.993 142.356,312.500 143.549,312.500 146.094 C 312.500 155.510,326.476 156.944,328.498 147.735 C 330.179 140.085,320.384 134.964,314.784 140.565 M90.664 162.891 C 103.627 183.633,105.775 183.634,118.703 162.911 C 128.251 147.608,126.646 148.665,137.159 150.755 C 149.201 153.150,154.528 156.584,158.405 164.453 C 161.938 171.624,161.664 172.742,155.289 177.136 C 124.374 198.444,85.008 198.448,54.102 177.146 C 47.856 172.841,47.945 173.036,49.627 167.374 C 52.201 158.705,59.220 153.387,71.484 150.812 C 82.435 148.513,81.189 147.728,90.664 162.891 M344.585 169.336 C 341.238 172.442,341.046 177.552,344.160 180.665 C 349.446 185.952,357.813 182.617,357.813 175.224 C 357.813 167.986,349.856 164.444,344.585 169.336 M277.734 191.732 C 207.961 205.216,170.617 277.702,200.826 341.016 C 229.279 400.650,306.913 418.884,359.634 378.316 C 409.278 340.116,413.979 265.518,369.543 221.082 C 346.132 197.671,308.784 185.731,277.734 191.732 M317.941 209.720 C 376.512 226.026,402.499 294.834,368.818 344.432 C 364.908 350.189,365.484 350.138,362.538 344.988 C 356.473 334.388,346.795 328.482,330.079 325.179 C 318.707 322.932,315.604 321.289,319.141 319.390 C 325.262 316.102,333.442 304.040,335.516 295.240 C 337.170 288.221,337.197 259.197,335.555 252.893 C 327.440 221.736,288.757 211.214,265.997 233.974 C 256.035 243.936,253.901 251.101,253.918 274.521 C 253.936 298.829,257.798 309.346,269.899 318.036 C 274.995 321.696,273.617 322.729,260.156 325.348 C 243.712 328.548,235.089 333.779,228.403 344.611 C 224.972 350.169,225.718 350.190,221.807 344.432 C 188.531 295.430,214.265 225.764,271.421 210.120 C 285.464 206.276,304.969 206.108,317.941 209.720 M44.247 217.685 C 39.133 222.799,42.717 231.250,50.000 231.250 C 55.181 231.250,57.813 228.619,57.813 223.438 C 57.813 218.256,55.181 215.625,50.000 215.625 C 47.051 215.625,45.892 216.040,44.247 217.685 M305.950 240.453 C 310.523 242.813,313.983 245.915,316.538 249.942 C 319.968 255.352,319.418 255.919,313.792 252.773 C 306.650 248.779,304.277 248.972,298.723 254.001 C 292.002 260.088,287.150 262.041,277.930 262.373 L 270.313 262.646 270.313 260.628 C 270.313 245.240,291.732 233.114,305.950 240.453 M44.247 248.153 L 42.188 250.213 42.188 301.953 L 42.188 353.693 44.247 355.753 L 46.307 357.813 100.437 357.813 L 154.568 357.813 153.380 360.193 C 150.219 366.530,157.021 373.578,163.582 370.764 C 168.933 368.469,182.031 353.727,182.031 350.000 C 182.031 346.250,168.918 331.524,163.518 329.209 C 157.587 326.667,151.049 332.573,152.947 338.757 L 153.760 341.406 105.786 341.406 L 57.813 341.406 57.813 295.810 L 57.813 250.213 55.753 248.153 C 54.108 246.509,52.949 246.094,50.000 246.094 C 47.051 246.094,45.892 246.509,44.247 248.153 M74.435 247.478 C 71.840 249.495,70.763 253.270,71.846 256.553 C 74.617 264.949,87.500 262.771,87.500 253.906 C 87.500 247.463,79.512 243.533,74.435 247.478 M314.510 272.375 L 320.482 276.001 320.176 283.899 C 318.824 318.791,270.313 318.596,270.313 283.698 L 270.313 278.906 277.809 278.906 C 288.043 278.906,298.436 275.627,304.690 270.425 C 307.373 268.193,307.741 268.266,314.510 272.375 M74.435 278.728 C 71.840 280.745,70.763 284.520,71.846 287.803 C 74.617 296.199,87.500 294.021,87.500 285.156 C 87.500 278.713,79.512 274.783,74.435 278.728 M77.767 308.440 C 72.987 309.474,70.287 314.330,71.854 319.077 C 74.594 327.381,87.500 325.264,87.500 316.510 C 87.500 311.450,82.608 307.393,77.767 308.440 M303.072 328.779 C 303.908 330.798,297.147 344.472,295.313 344.472 C 295.098 344.472,293.057 341.440,290.778 337.734 C 284.866 328.118,285.497 326.563,295.313 326.563 C 302.090 326.563,302.163 326.583,303.072 328.779 M280.940 353.125 C 294.317 374.602,296.307 374.596,309.824 353.031 C 314.371 345.778,318.328 339.844,318.617 339.844 C 320.678 339.844,335.465 343.077,337.727 344.022 C 343.967 346.629,349.524 353.839,351.122 361.401 C 352.148 366.256,331.785 377.663,314.666 381.823 C 301.506 385.020,278.440 383.515,265.402 378.607 C 251.160 373.246,238.743 364.997,239.503 361.401 C 241.923 349.951,248.581 344.250,262.864 341.397 C 273.067 339.360,271.892 338.597,280.940 353.125 " stroke="none" fill="#000000" fill-rule="evenodd"></path></g></svg>