<svg id="svg" xmlns="http://www.w3.org/2000/svg" xmlns:xlink="http://www.w3.org/1999/xlink" width="25" height="25" viewBox="0, 0, 400,400"><g id="svgg"><path id="path0" d="M108.984 1.051 C 98.634 4.464,90.572 12.878,87.930 23.023 C 85.285 33.177,86.682 50.156,90.704 56.740 L 92.196 59.183 84.575 62.950 C 65.439 72.410,54.523 90.191,53.438 113.672 C 52.633 131.088,50.838 130.367,95.117 130.425 L 128.906 130.469 128.906 132.851 C 128.906 140.560,131.097 141.406,151.061 141.406 L 167.849 141.406 170.253 139.384 C 172.273 137.684,172.656 136.807,172.656 133.887 C 172.656 126.546,169.585 125.011,154.883 125.004 L 145.313 125.000 145.326 122.852 C 145.466 100.646,167.367 78.906,189.597 78.906 L 192.188 78.906 192.188 85.764 C 192.188 93.659,193.097 95.624,197.289 96.782 C 204.509 98.775,207.813 95.257,207.813 85.574 L 207.813 78.906 210.403 78.906 C 232.633 78.906,254.534 100.646,254.674 122.852 L 254.688 125.000 245.117 125.004 C 230.303 125.011,227.344 126.459,227.344 133.698 C 227.344 136.829,227.693 137.655,229.747 139.384 L 232.151 141.406 248.939 141.406 C 268.903 141.406,271.094 140.560,271.094 132.851 L 271.094 130.469 304.883 130.425 C 349.162 130.367,347.367 131.088,346.562 113.672 C 345.430 89.188,333.680 71.088,312.756 61.601 L 307.720 59.318 309.254 56.807 C 313.010 50.662,314.670 33.920,312.470 24.382 C 305.468 -5.971,262.628 -8.829,251.468 20.313 C 248.048 29.243,248.648 46.372,252.690 55.201 L 254.610 59.395 249.620 61.657 C 246.875 62.902,243.034 65.018,241.084 66.359 L 237.539 68.798 232.593 67.071 L 227.646 65.345 229.974 61.046 C 234.373 52.925,235.919 35.942,233.207 25.531 C 224.068 -9.557,173.712 -8.198,166.328 27.335 C 164.340 36.899,165.722 52.278,169.193 59.233 L 172.266 65.388 167.417 67.074 L 162.569 68.760 157.688 65.606 C 155.004 63.871,151.116 61.851,149.049 61.116 C 146.981 60.382,145.450 59.426,145.647 58.992 C 156.267 35.592,150.596 11.464,132.422 2.729 C 126.873 0.063,114.637 -0.814,108.984 1.051 M126.764 18.710 C 137.215 25.338,137.191 48.036,126.726 54.148 C 114.261 61.428,103.159 53.033,103.159 36.328 C 103.159 19.640,114.676 11.044,126.764 18.710 M207.465 17.880 C 221.298 24.163,222.317 51.527,209.025 59.745 C 195.881 67.871,182.706 58.602,182.142 40.831 C 181.542 21.924,193.169 11.386,207.465 17.880 M290.386 19.209 C 299.269 26.277,299.638 45.814,291.022 52.916 C 282.050 60.312,269.467 55.881,266.320 44.218 C 261.194 25.220,277.128 8.661,290.386 19.209 M110.156 76.978 C 110.156 84.420,114.317 88.994,120.102 87.908 C 124.646 87.056,126.563 84.236,126.563 78.402 L 126.563 73.438 129.883 73.442 C 133.960 73.447,138.069 74.523,143.932 77.122 L 148.410 79.107 144.511 83.375 C 138.001 90.497,132.259 101.883,130.116 111.914 L 129.658 114.063 99.547 114.063 L 69.436 114.063 69.927 110.352 C 72.627 89.957,88.670 73.945,106.836 73.516 L 110.156 73.438 110.156 76.978 M273.438 78.402 C 273.438 84.236,275.354 87.056,279.898 87.908 C 285.683 88.994,289.844 84.420,289.844 76.978 L 289.844 73.438 292.773 73.457 C 310.870 73.575,327.364 89.890,330.073 110.352 L 330.564 114.063 300.453 114.063 L 270.342 114.063 269.884 111.914 C 267.744 101.897,261.999 90.497,255.513 83.401 L 251.638 79.160 254.530 77.747 C 259.524 75.306,265.874 73.523,269.727 73.480 L 273.438 73.438 273.438 78.402 M2.099 124.066 L 0.000 126.257 -0.000 200.102 L -0.000 273.946 1.758 275.529 C 4.351 277.863,2.726 277.284,38.700 288.685 C 77.339 300.931,78.747 301.022,80.855 291.425 C 81.458 288.680,81.404 288.698,84.423 290.259 C 86.428 291.296,86.657 291.738,86.142 293.579 C 82.224 307.570,92.394 323.295,106.753 325.448 C 109.859 325.914,110.023 326.078,110.489 329.184 C 112.052 339.604,121.128 348.651,131.737 350.365 C 134.850 350.868,134.974 351.001,135.432 354.344 C 136.815 364.429,145.098 372.681,156.239 375.071 C 159.937 375.864,160.157 376.049,160.164 378.385 C 160.211 393.639,181.450 404.963,196.484 397.750 C 202.120 395.046,218.368 378.914,220.578 373.828 L 221.936 370.703 229.132 370.680 C 242.213 370.638,254.637 360.623,254.699 350.071 C 254.717 347.098,255.411 346.506,260.131 345.443 C 270.368 343.136,278.285 334.770,279.437 325.044 L 279.882 321.288 283.719 320.834 C 294.168 319.596,304.688 308.237,304.688 298.192 C 304.688 295.794,305.039 295.487,311.340 292.362 C 319.283 288.422,318.507 288.497,319.161 291.602 C 319.827 294.761,322.980 298.213,325.757 298.823 C 327.231 299.147,337.824 296.126,361.300 288.685 C 397.274 277.284,395.649 277.863,398.242 275.529 L 400.000 273.946 400.000 200.102 L 400.000 126.257 397.901 124.066 C 393.656 119.636,394.163 119.433,342.188 146.401 C 288.294 174.364,291.212 172.315,292.936 180.988 C 293.485 183.752,293.774 186.174,293.577 186.371 C 293.381 186.567,278.662 183.178,260.868 178.838 C 219.187 168.674,213.642 168.618,199.274 178.212 L 194.619 181.321 190.714 179.342 C 174.284 171.016,161.114 170.896,129.371 178.782 C 116.950 181.868,106.696 184.300,106.583 184.187 C 106.470 184.074,106.762 182.304,107.231 180.254 C 108.763 173.559,107.606 172.301,92.819 164.572 C 4.816 118.580,6.595 119.374,2.099 124.066 M197.105 125.866 C 191.655 127.440,190.131 135.631,194.591 139.384 C 200.085 144.006,207.813 140.648,207.813 133.638 C 207.813 129.731,205.311 125.781,202.836 125.781 C 202.206 125.781,201.222 125.638,200.650 125.462 C 200.078 125.286,198.483 125.468,197.105 125.866 M53.906 163.043 C 73.457 173.177,89.562 181.557,89.694 181.665 C 90.113 182.008,67.051 278.483,66.379 279.202 C 65.756 279.868,62.441 278.900,30.273 268.659 L 15.625 263.996 15.625 203.789 C 15.625 146.773,15.697 143.610,16.992 144.101 C 17.744 144.385,34.355 152.910,53.906 163.043 M384.375 203.873 L 384.375 263.996 369.727 268.659 C 337.564 278.898,334.244 279.868,333.623 279.202 C 332.570 278.075,309.938 181.716,310.662 181.442 C 311.028 181.304,327.500 172.774,347.266 162.487 C 367.031 152.200,383.467 143.776,383.789 143.767 C 384.111 143.758,384.375 170.805,384.375 203.873 M262.345 196.182 C 281.981 200.957,298.188 204.994,298.361 205.154 C 298.533 205.314,302.262 220.480,306.646 238.855 L 314.618 272.266 307.504 275.937 C 303.592 277.956,300.182 279.626,299.927 279.648 C 299.556 279.680,262.538 241.044,244.875 222.189 C 239.103 216.027,239.108 216.026,209.702 227.344 C 181.070 238.364,179.458 238.579,174.019 232.115 C 167.638 224.532,170.346 220.006,189.844 205.662 C 220.142 183.371,213.329 184.262,262.345 196.182 M175.217 191.165 L 179.731 192.578 172.188 198.047 C 159.001 207.608,155.203 213.719,155.191 225.391 C 155.176 240.388,166.035 251.826,181.317 252.910 C 188.317 253.407,187.222 253.723,213.431 243.651 C 224.470 239.408,233.838 235.938,234.249 235.938 C 235.205 235.938,285.889 289.148,287.224 291.554 C 290.530 297.511,285.910 304.688,278.769 304.688 C 275.467 304.688,275.348 304.584,252.765 282.118 C 240.287 269.705,229.310 259.158,228.372 258.681 C 222.711 255.800,216.406 259.937,216.406 266.532 C 216.406 268.822,218.633 271.319,238.561 291.375 C 263.225 316.198,263.281 316.265,263.281 320.703 C 263.281 327.270,256.267 331.736,250.535 328.819 C 249.596 328.342,238.619 317.795,226.141 305.382 L 203.454 282.813 199.739 282.813 C 194.024 282.813,190.418 287.318,191.769 292.773 C 192.113 294.166,200.363 303.034,215.207 317.969 C 232.592 335.459,238.240 341.608,238.633 343.474 C 239.843 349.215,234.477 355.116,228.688 354.409 C 226.069 354.089,223.562 351.942,206.423 335.335 C 186.757 316.281,183.320 313.642,177.040 312.781 C 173.731 312.328,173.588 312.195,173.096 309.118 C 171.401 298.514,162.309 289.403,151.859 287.836 C 148.732 287.367,148.615 287.242,148.158 283.915 C 145.209 262.394,119.745 255.818,102.563 272.140 L 96.881 277.537 91.147 274.956 L 85.413 272.376 87.266 264.508 C 88.285 260.181,92.007 244.512,95.538 229.688 L 101.957 202.734 124.611 197.097 C 137.071 193.997,149.551 190.926,152.344 190.273 C 158.651 188.798,168.940 189.199,175.217 191.165 M127.412 280.688 C 135.113 285.877,133.640 291.536,121.624 302.910 C 113.995 310.132,108.990 311.304,104.910 306.824 C 99.612 301.006,100.420 297.858,109.638 288.402 C 119.173 278.623,122.321 277.256,127.412 280.688 M154.085 306.977 C 158.956 312.428,158.063 315.544,148.968 324.841 C 139.221 334.804,136.637 335.987,131.483 332.844 C 124.038 328.305,124.935 323.165,134.937 313.056 C 145.120 302.765,149.172 301.478,154.085 306.977 M178.051 330.917 C 184.330 336.201,182.959 341.136,172.367 351.383 C 163.027 360.420,158.589 361.356,153.541 355.357 C 149.361 350.389,150.914 346.172,160.295 337.010 C 169.560 327.962,173.097 326.748,178.051 330.917 M203.127 356.055 C 208.965 361.344,207.777 365.401,197.401 375.612 C 187.682 385.175,184.414 386.133,179.219 380.938 C 173.925 375.644,174.929 372.414,185.000 362.344 C 194.777 352.566,198.032 351.437,203.127 356.055 " stroke="none" fill="#000000" fill-rule="evenodd"></path></g></svg>