<svg id="svg" xmlns="http://www.w3.org/2000/svg" xmlns:xlink="http://www.w3.org/1999/xlink" width="25" height="25" viewBox="0, 0, 400,400"><g id="svgg"><path id="path0" d="M12.500 1.624 C 7.781 3.758,4.103 7.384,1.865 12.109 L 0.015 16.016 0.008 104.492 C -0.001 203.795,-0.464 196.094,5.520 196.094 C 12.478 196.094,12.490 196.011,12.496 148.643 L 12.500 108.614 100.849 108.408 L 189.198 108.203 191.156 105.927 C 193.465 103.242,193.204 99.676,190.536 97.461 C 188.989 96.177,183.542 96.094,100.695 96.094 L 12.500 96.094 12.500 57.044 L 12.500 17.993 14.648 15.596 C 18.176 11.660,13.528 11.756,200.000 11.756 C 386.472 11.756,381.824 11.660,385.352 15.596 L 387.500 17.993 387.500 57.044 L 387.500 96.094 299.305 96.094 C 216.458 96.094,211.011 96.177,209.464 97.461 C 206.796 99.676,206.535 103.242,208.844 105.927 L 210.802 108.203 299.151 108.408 L 387.500 108.614 387.500 212.841 L 387.500 317.068 385.497 319.448 C 382.328 323.214,380.206 323.432,347.266 323.386 L 316.797 323.343 313.741 316.945 C 307.182 303.213,298.310 296.879,275.944 289.965 L 263.215 286.030 257.367 280.568 C 246.580 270.494,245.771 270.610,220.303 285.851 C 209.453 292.344,200.317 297.656,200.000 297.656 C 199.683 297.656,190.547 292.344,179.697 285.851 C 154.216 270.602,153.425 270.490,142.598 280.601 L 136.715 286.095 123.474 290.201 C 101.514 297.010,92.784 303.283,86.259 316.945 L 83.203 323.343 52.734 323.386 C 19.794 323.432,17.672 323.214,14.503 319.448 L 12.500 317.068 12.496 267.713 C 12.491 210.025,12.603 210.937,5.520 210.938 C -0.315 210.938,-0.001 207.765,0.008 266.602 L 0.015 319.141 1.865 323.047 C 7.416 334.769,10.045 335.494,48.047 335.789 L 79.297 336.032 79.022 364.019 C 78.717 394.966,78.909 396.406,83.660 398.863 C 87.256 400.722,313.264 400.560,316.420 398.696 C 320.665 396.188,320.703 395.889,320.703 364.766 L 320.703 336.032 351.953 335.789 C 389.955 335.495,392.584 334.769,398.135 323.047 L 399.985 319.141 399.975 167.578 C 399.966 16.839,399.957 15.997,398.376 12.500 C 396.242 7.781,392.616 4.103,387.891 1.865 L 383.984 0.015 200.000 0.025 C 16.655 0.034,16.003 0.040,12.500 1.624 M44.240 33.960 C 26.528 40.273,26.216 65.606,43.750 73.756 C 48.983 76.189,154.986 76.330,161.253 73.913 C 178.618 67.215,179.679 42.464,162.934 34.667 L 158.984 32.828 103.125 32.854 C 57.657 32.876,46.703 33.082,44.240 33.960 M220.313 34.436 C 199.389 43.896,206.129 75.138,229.093 75.138 C 245.249 75.138,255.300 58.895,248.166 44.315 C 243.316 34.401,230.469 29.844,220.313 34.436 M279.688 34.436 C 258.698 43.926,265.508 75.072,288.584 75.125 C 304.842 75.163,314.655 58.896,307.372 43.978 C 302.672 34.351,289.737 29.893,279.688 34.436 M339.063 34.436 C 321.817 42.234,322.961 68.794,340.774 74.180 C 355.537 78.645,369.010 68.997,369.089 53.905 C 369.171 38.372,353.225 28.033,339.063 34.436 M158.773 46.849 C 165.366 52.034,162.331 61.639,153.707 62.884 C 144.620 64.195,49.592 62.925,47.361 61.463 C 42.498 58.275,41.972 51.506,46.276 47.486 L 48.603 45.313 102.712 45.313 C 155.327 45.313,156.874 45.355,158.773 46.849 M233.465 46.418 C 237.256 48.378,238.939 53.457,237.088 57.356 C 234.236 63.367,227.652 64.527,222.969 59.844 C 215.790 52.665,224.356 41.707,233.465 46.418 M292.902 46.450 C 296.210 48.161,298.059 52.606,296.972 56.235 C 294.849 63.322,286.497 65.003,281.705 59.310 C 275.524 51.964,284.230 41.965,292.902 46.450 M352.277 46.450 C 357.145 48.967,358.113 56.740,354.021 60.443 C 348.109 65.793,338.410 61.014,339.293 53.186 C 340.026 46.680,346.363 43.392,352.277 46.450 M185.390 127.050 C 182.274 128.586,180.532 131.181,179.821 135.345 C 179.029 139.989,173.330 142.548,169.637 139.919 C 162.996 135.190,158.578 136.541,148.576 146.359 C 137.387 157.341,135.752 161.680,140.286 168.361 L 142.291 171.315 140.734 174.915 C 139.386 178.034,138.801 178.578,136.361 178.983 C 128.279 180.323,126.302 183.778,125.910 197.256 C 125.455 212.854,128.113 218.731,136.168 219.939 C 140.839 220.639,143.172 226.111,140.437 229.951 C 135.656 236.666,137.572 242.053,148.586 252.849 C 158.061 262.138,164.326 263.851,169.848 258.663 L 171.576 257.039 175.632 258.753 C 179.299 260.302,179.688 260.702,179.688 262.930 C 179.688 270.607,185.155 273.435,200.000 273.435 C 214.845 273.435,220.313 270.607,220.313 262.930 C 220.313 260.702,220.701 260.302,224.368 258.753 L 228.424 257.039 230.152 258.663 C 235.701 263.876,241.761 262.168,251.603 252.618 C 262.163 242.371,264.221 236.493,259.546 229.927 C 256.844 226.133,259.178 220.637,263.783 219.946 C 271.938 218.723,273.828 214.822,273.828 199.219 C 273.828 183.926,272.135 180.454,263.999 179.060 C 261.154 178.572,260.664 178.142,259.267 174.915 L 257.709 171.315 259.714 168.361 C 264.248 161.680,262.613 157.341,251.424 146.359 C 241.422 136.541,237.004 135.190,230.363 139.919 C 226.670 142.548,220.971 139.989,220.179 135.345 C 219.457 131.122,217.694 128.543,214.485 127.020 C 210.737 125.242,189.011 125.264,185.390 127.050 M207.813 141.753 C 207.813 146.263,209.957 148.644,215.625 150.427 C 217.988 151.170,221.580 152.609,223.607 153.624 C 228.788 156.218,231.755 156.043,234.942 152.954 L 237.536 150.440 243.118 156.022 L 248.700 161.604 246.225 164.423 C 243.050 168.039,243.079 170.190,246.397 177.429 C 247.853 180.605,249.286 184.341,249.582 185.733 C 250.361 189.398,253.312 191.406,257.918 191.406 L 261.719 191.406 261.719 199.609 L 261.719 207.813 257.571 207.813 C 252.123 207.813,251.291 208.584,248.544 216.180 C 247.269 219.708,245.668 223.390,244.988 224.362 C 242.804 227.480,243.390 231.376,246.496 234.387 L 249.243 237.048 243.622 242.707 L 238.001 248.366 235.014 245.667 C 231.356 242.363,229.436 242.287,223.611 245.218 C 221.152 246.454,217.090 248.110,214.584 248.896 C 209.386 250.527,207.813 252.590,207.813 257.774 L 207.813 260.938 200.000 260.938 L 192.188 260.938 192.188 257.849 C 192.188 253.038,190.860 250.989,186.798 249.533 C 184.821 248.825,180.618 247.058,177.458 245.607 C 170.258 242.301,168.704 242.308,164.986 245.667 L 161.999 248.366 156.378 242.707 L 150.757 237.048 153.504 234.387 C 156.610 231.376,157.196 227.480,155.012 224.362 C 154.332 223.390,152.731 219.708,151.456 216.180 C 148.709 208.584,147.877 207.813,142.429 207.813 L 138.281 207.813 138.281 199.609 L 138.281 191.406 142.082 191.406 C 146.727 191.406,149.614 189.411,150.306 185.724 C 150.573 184.302,152.019 180.576,153.520 177.443 C 156.932 170.325,156.976 168.069,153.775 164.423 L 151.300 161.604 156.882 156.022 L 162.464 150.440 165.058 152.954 C 168.249 156.047,171.221 156.219,176.393 153.610 C 178.420 152.587,182.105 151.115,184.582 150.339 C 190.215 148.572,191.537 147.123,192.010 142.195 L 192.386 138.281 200.099 138.281 L 207.813 138.281 207.813 141.753 M192.578 160.968 C 162.073 167.221,150.401 204.919,172.216 226.733 C 193.827 248.344,230.188 238.431,237.899 208.826 C 244.990 181.603,220.105 155.325,192.578 160.968 M210.800 175.392 C 231.221 184.556,231.662 212.677,211.550 223.201 C 202.456 227.959,189.058 225.653,181.470 218.023 C 160.889 197.328,184.196 163.452,210.800 175.392 M172.335 296.287 C 181.106 301.549,188.195 306.099,188.087 306.399 C 187.979 306.698,183.719 310.310,178.620 314.426 L 169.348 321.909 158.951 307.243 L 148.554 292.578 151.389 289.648 C 155.178 285.732,154.251 285.438,172.335 296.287 M248.441 289.648 L 251.508 292.578 241.091 307.228 L 230.674 321.878 221.391 314.461 C 216.286 310.381,212.109 306.712,212.109 306.307 C 212.109 305.451,242.865 286.809,244.366 286.755 C 244.920 286.735,246.753 288.037,248.441 289.648 M150.781 317.675 C 166.240 339.731,166.595 340.008,173.209 335.144 L 176.413 332.787 179.662 338.810 L 182.910 344.833 175.949 366.362 L 168.988 387.891 152.463 388.101 L 135.938 388.312 135.938 369.511 L 135.938 350.710 134.020 348.793 C 132.811 347.584,131.210 346.875,129.688 346.875 C 128.165 346.875,126.564 347.584,125.355 348.793 L 123.438 350.710 123.438 369.496 L 123.438 388.281 107.348 388.281 L 91.259 388.281 91.618 363.477 C 92.244 320.328,97.134 311.616,125.765 302.649 C 131.575 300.830,136.680 299.328,137.109 299.312 C 137.539 299.296,143.691 307.559,150.781 317.675 M273.544 302.436 C 302.727 311.428,307.723 320.182,308.379 363.477 L 308.755 388.281 292.659 388.281 L 276.563 388.281 276.563 369.496 L 276.563 350.710 274.645 348.793 C 273.436 347.584,271.835 346.875,270.313 346.875 C 268.790 346.875,267.189 347.584,265.980 348.793 L 264.063 350.710 264.063 369.511 L 264.063 388.312 247.557 388.101 L 231.052 387.891 224.047 366.307 L 217.042 344.723 220.309 338.769 L 223.577 332.816 226.973 335.254 C 233.418 339.883,233.812 339.573,248.982 317.968 C 256.202 307.686,262.333 299.261,262.606 299.246 C 262.880 299.231,267.802 300.666,273.544 302.436 M206.953 319.172 C 214.361 325.153,213.966 323.913,210.465 330.173 L 207.648 335.209 199.799 334.987 L 191.949 334.766 189.343 330.078 C 187.910 327.500,186.733 325.141,186.728 324.836 C 186.717 324.147,199.140 314.063,200.000 314.063 C 200.344 314.063,203.473 316.362,206.953 319.172 M211.206 367.773 L 217.777 387.891 208.889 388.111 C 204.000 388.232,196.006 388.232,191.125 388.111 L 182.249 387.891 188.750 367.969 C 192.326 357.012,195.265 347.959,195.282 347.852 C 195.299 347.744,197.410 347.656,199.973 347.656 L 204.634 347.656 211.206 367.773 " stroke="none" fill="#000000" fill-rule="evenodd"></path></g></svg>