<svg id="svg" xmlns="http://www.w3.org/2000/svg" xmlns:xlink="http://www.w3.org/1999/xlink" width="25" height="25" viewBox="0, 0, 400,400"><g id="svgg"><path id="path0" d="M29.042 1.680 C 23.331 3.874,17.087 10.200,14.923 15.982 L 13.281 20.371 13.281 149.942 L 13.281 279.514 10.500 280.035 C 7.280 280.639,2.162 284.948,0.822 288.183 C -1.249 293.183,0.069 318.065,2.579 321.353 C 7.182 327.382,0.062 326.907,92.325 327.344 L 174.884 327.734 128.368 357.813 C 102.784 374.355,81.365 388.584,80.770 389.432 C 77.646 393.880,81.000 400.000,86.561 400.000 C 89.241 400.000,96.064 395.817,144.531 364.453 C 174.744 344.902,199.729 328.906,200.054 328.906 C 200.378 328.906,225.342 344.902,255.529 364.453 C 303.917 395.792,310.773 400.000,313.446 400.000 C 319.000 400.000,322.352 393.877,319.230 389.432 C 318.635 388.584,297.216 374.355,271.632 357.813 L 225.116 327.734 307.803 327.344 L 390.491 326.953 393.798 324.609 C 399.487 320.577,400.000 318.813,400.000 303.294 C 400.000 293.009,399.729 289.241,398.868 287.577 C 397.175 284.304,392.580 280.613,389.470 280.030 L 386.719 279.514 386.719 149.942 L 386.719 20.371 385.077 15.982 C 382.856 10.048,376.671 3.862,370.736 1.642 L 366.348 -0.000 199.775 0.041 C 33.869 0.081,33.186 0.088,29.042 1.680 M366.861 15.664 C 373.234 19.604,372.656 6.097,372.656 151.069 L 372.656 279.688 256.641 279.688 L 140.625 279.688 140.625 275.532 C 140.625 266.082,136.186 258.543,128.516 254.963 C 123.873 252.797,66.623 252.065,59.856 254.085 C 52.031 256.422,46.094 265.674,46.094 275.532 L 46.094 279.688 36.719 279.688 L 27.344 279.688 27.344 151.069 L 27.344 22.450 29.020 19.738 C 32.886 13.482,15.205 14.069,199.908 14.065 C 364.255 14.063,364.269 14.063,366.861 15.664 M108.678 28.214 C 54.085 39.672,28.343 99.621,60.074 141.406 C 63.661 146.130,63.710 146.952,60.758 152.904 C 58.861 156.729,56.328 159.317,51.109 162.765 C 30.428 176.428,74.621 187.236,100.800 174.917 C 107.396 171.813,107.507 171.792,112.519 172.605 C 155.559 179.588,197.415 153.140,205.526 113.836 C 216.290 61.676,165.056 16.380,108.678 28.214 M144.531 42.589 C 184.600 53.154,204.542 94.522,185.372 127.311 C 171.678 150.732,140.465 164.030,112.891 158.190 C 105.052 156.529,103.271 156.729,98.438 159.812 C 92.907 163.339,85.537 165.637,77.992 166.185 C 69.435 166.808,69.005 166.508,71.904 161.939 C 78.702 151.222,79.491 142.333,74.190 136.196 C 35.945 91.920,84.841 26.850,144.531 42.589 M112.892 67.637 C 106.738 70.846,106.659 71.039,99.151 101.063 C 92.523 127.566,92.341 129.095,95.469 132.010 C 101.376 137.513,106.200 132.852,109.401 118.550 L 110.405 114.063 126.657 114.063 L 142.909 114.063 143.680 116.992 C 144.104 118.604,145.042 122.305,145.764 125.218 C 148.374 135.748,160.185 137.042,160.145 126.793 C 160.127 122.406,148.011 75.367,146.103 72.280 C 142.638 66.674,120.638 63.598,112.892 67.637 M135.193 83.789 C 135.676 85.615,136.745 89.563,137.567 92.562 C 138.390 95.562,139.063 98.462,139.063 99.008 C 139.063 99.769,136.137 100.000,126.510 100.000 C 114.919 100.000,113.989 99.895,114.368 98.633 C 114.594 97.881,115.716 93.486,116.861 88.867 L 118.943 80.469 126.629 80.469 L 134.315 80.469 135.193 83.789 M265.562 114.027 C 216.178 122.982,187.815 168.627,204.596 212.142 C 217.094 244.549,254.876 264.799,292.787 259.409 L 299.609 258.439 305.078 261.201 C 317.024 267.234,333.674 268.620,349.155 264.871 C 360.593 262.101,364.071 256.180,357.298 251.010 C 349.073 244.733,344.500 239.024,343.649 233.974 C 343.496 233.063,344.921 230.274,347.101 227.222 C 376.864 185.537,354.023 129.587,301.542 115.626 C 294.296 113.698,272.675 112.738,265.562 114.027 M294.369 128.585 C 340.688 138.129,361.601 188.521,333.100 221.911 C 327.062 228.985,327.170 233.828,333.651 246.500 C 337.225 253.489,337.151 253.576,328.250 252.873 C 321.132 252.310,314.286 250.114,308.177 246.436 C 303.115 243.388,301.500 243.240,292.707 245.022 C 253.302 253.006,214.016 223.852,214.074 186.669 C 214.134 148.639,253.499 120.163,294.369 128.585 M276.450 147.278 C 274.099 148.556,272.656 151.993,272.656 156.318 L 272.656 159.278 258.264 159.522 C 244.267 159.759,243.816 159.818,241.858 161.660 C 239.111 164.243,239.066 168.825,241.761 171.520 L 243.679 173.438 267.640 173.438 L 291.602 173.438 291.100 175.945 C 290.393 179.483,285.620 188.853,282.578 192.678 L 280.013 195.902 276.514 191.506 C 267.486 180.161,257.476 189.245,265.938 201.104 L 269.376 205.921 264.961 208.737 C 262.533 210.286,259.426 212.115,258.055 212.803 C 253.028 215.326,251.533 220.831,254.883 224.488 C 258.519 228.458,263.528 227.176,274.961 219.350 L 280.000 215.901 286.149 220.017 C 297.972 227.930,301.992 228.852,305.459 224.444 C 308.934 220.027,307.344 216.034,300.598 212.237 C 297.906 210.721,294.575 208.640,293.197 207.611 L 290.691 205.741 294.166 201.113 C 298.615 195.188,302.559 187.166,304.797 179.492 L 306.563 173.438 311.520 173.438 C 319.644 173.438,323.207 167.518,318.429 161.958 L 316.545 159.766 301.632 159.523 L 286.719 159.280 286.719 155.095 C 286.719 147.351,282.386 144.053,276.450 147.278 M124.213 269.135 C 125.532 270.539,126.142 272.282,126.399 275.385 L 126.756 279.688 93.456 279.688 L 60.156 279.688 60.156 275.841 C 60.156 272.843,60.602 271.465,62.179 269.591 L 64.201 267.188 93.293 267.188 L 122.384 267.188 124.213 269.135 M385.938 303.516 L 385.938 313.281 200.000 313.281 L 14.063 313.281 14.063 303.516 L 14.063 293.750 200.000 293.750 L 385.938 293.750 385.938 303.516 " stroke="none" fill="#000000" fill-rule="evenodd"></path></g></svg>